<?xml version="1.0" encoding="utf-8"?>
<!-- Generator: Adobe Illustrator 25.0.0, SVG Export Plug-In . SVG Version: 6.00 Build 0)  -->
<svg version="1.1" id="Calque_1" xmlns="http://www.w3.org/2000/svg" xmlns:xlink="http://www.w3.org/1999/xlink" x="0px" y="0px"
	 viewBox="0 0 128 128" style="enable-background:new 0 0 128 128;" xml:space="preserve">
<style type="text/css">
	.st0{fill:#FFF9EF;}
	.st1{fill:#BC3A51;}
	.st2{fill:#1B2028;}
</style>
<path class="st0" d="M90.6,6.7L90.6,6.7L90.6,6.7H37.4l0,0l0,0c-3.2,0-5.9,2.6-5.9,5.9v59.3v11v6.4v11v15.2c0,3.2,2.6,5.9,5.9,5.9
	l0,0l0,0h53.2l0,0l0,0c3.2,0,5.9-2.6,5.9-5.9V56.2v-11v-6.4v-11V12.5C96.5,9.3,93.9,6.7,90.6,6.7z"/>
<path class="st1" d="M37.4,118.2c-1.5,0-2.7-1.2-2.7-2.7v-103c0-1.5,1.2-2.7,2.7-2.7h53.2c1.5,0,2.7,1.2,2.7,2.7v102.9
	c0,1.5-1.2,2.7-2.7,2.7l0,0L37.4,118.2L37.4,118.2z"/>
<g>
	<path class="st2" d="M64,53.5c-11.6,0-20.9,5.5-20.9,12.2S52.5,77.9,64,77.9c11.6,0,20.9-5.5,20.9-12.2
		C84.9,58.9,75.6,53.5,64,53.5z"/>
	<g>
		<path class="st0" d="M64,58.5c-4,0-7.2,3.2-7.2,7.2s3.2,7.2,7.2,7.2s7.2-3.2,7.2-7.2S68,58.5,64,58.5z"/>
	</g>
	<g>
		<path class="st2" d="M85,57.7c-0.3,0-0.6-0.1-0.8-0.3c-1.1-1.1-2.4-2.1-3.9-3c-4.4-2.6-10.2-4-16.3-4s-11.9,1.4-16.3,4
			c-1.5,0.9-2.8,1.9-3.9,3c-0.4,0.4-1.1,0.4-1.5,0s-0.4-1.1,0-1.5c1.2-1.2,2.7-2.3,4.4-3.3c4.7-2.8,10.9-4.3,17.4-4.3
			s12.7,1.5,17.4,4.3c1.7,1,3.1,2.1,4.4,3.3c0.4,0.4,0.4,1.1,0,1.5C85.6,57.6,85.3,57.7,85,57.7z"/>
	</g>
	<g>
		<path class="st2" d="M64,50.2c-0.6,0-1.1-0.5-1.1-1.1v-4.3c0-0.6,0.5-1.1,1.1-1.1s1.1,0.5,1.1,1.1v4.3
			C65.1,49.7,64.6,50.2,64,50.2z"/>
	</g>
	<g>
		<path class="st2" d="M69.2,50.4c-0.1,0-0.1,0-0.2,0c-0.6-0.1-1-0.6-0.9-1.2l0.6-4.3c0.1-0.6,0.6-1,1.2-0.9s1,0.6,0.9,1.2l-0.6,4.3
			C70.2,50.1,69.7,50.4,69.2,50.4z"/>
	</g>
	<g>
		<path class="st2" d="M74.4,51.6c-0.1,0-0.2,0-0.3,0c-0.6-0.2-0.9-0.8-0.8-1.3l1.1-4.2c0.2-0.6,0.8-0.9,1.3-0.8
			c0.6,0.2,0.9,0.8,0.8,1.3l-1.1,4.2C75.3,51.3,74.8,51.6,74.4,51.6z"/>
	</g>
	<g>
		<path class="st2" d="M79.6,53.6c-0.2,0-0.3,0-0.5-0.1c-0.5-0.3-0.8-0.9-0.5-1.5l1.9-3.9c0.3-0.5,0.9-0.8,1.5-0.5
			c0.5,0.3,0.8,0.9,0.5,1.5l-2,3.9C80.3,53.4,80,53.6,79.6,53.6z"/>
	</g>
	<g>
		<path class="st2" d="M83.9,56.2c-0.2,0-0.5-0.1-0.7-0.2c-0.5-0.4-0.5-1.1-0.2-1.5l2.7-3.4c0.4-0.5,1.1-0.5,1.5-0.2
			c0.5,0.4,0.5,1.1,0.2,1.5l-2.7,3.4C84.5,56.1,84.2,56.2,83.9,56.2z"/>
	</g>
	<g>
		<path class="st2" d="M58.8,50.4c-0.5,0-1-0.4-1.1-0.9l-0.6-4.3C57,44.6,57.4,44.1,58,44s1.1,0.3,1.2,0.9l0.6,4.3
			C59.9,49.8,59.5,50.3,58.8,50.4C58.9,50.4,58.9,50.4,58.8,50.4z"/>
	</g>
	<g>
		<path class="st2" d="M53.6,51.6c-0.5,0-0.9-0.3-1.1-0.8l-1.1-4.2c-0.2-0.6,0.2-1.2,0.8-1.3c0.6-0.2,1.2,0.2,1.3,0.8l1.1,4.2
			c0.2,0.6-0.2,1.2-0.8,1.3C53.8,51.6,53.7,51.6,53.6,51.6z"/>
	</g>
	<g>
		<path class="st2" d="M48.4,53.6c-0.4,0-0.8-0.2-1-0.6l-1.9-3.9c-0.3-0.5,0-1.2,0.5-1.5s1.2,0,1.5,0.5l1.9,3.9
			c0.3,0.5,0,1.2-0.5,1.5C48.8,53.6,48.6,53.6,48.4,53.6z"/>
	</g>
	<g>
		<path class="st2" d="M44.1,56.2c-0.3,0-0.6-0.1-0.9-0.4l-2.7-3.4c-0.4-0.5-0.3-1.2,0.2-1.5c0.5-0.4,1.2-0.3,1.5,0.2l2.7,3.4
			c0.4,0.5,0.3,1.2-0.2,1.5C44.6,56.2,44.4,56.2,44.1,56.2z"/>
	</g>
</g>
</svg>
